<?xml version="1.0" encoding="UTF-8" standalone="no"?>
<!-- Generator: Adobe Illustrator 17.1.0, SVG Export Plug-In . SVG Version: 6.00 Build 0)  -->

<svg
   xmlns:dc="http://purl.org/dc/elements/1.1/"
   xmlns:cc="http://creativecommons.org/ns#"
   xmlns:rdf="http://www.w3.org/1999/02/22-rdf-syntax-ns#"
   xmlns:svg="http://www.w3.org/2000/svg"
   xmlns="http://www.w3.org/2000/svg"
   xmlns:sodipodi="http://sodipodi.sourceforge.net/DTD/sodipodi-0.dtd"
   xmlns:inkscape="http://www.inkscape.org/namespaces/inkscape"
   version="1.1"
   id="Layer_1"
   x="0px"
   y="0px"
   width="48px"
   height="48px"
   viewBox="0 0 48 48"
   style="enable-background:new 0 0 48 48;"
   xml:space="preserve"
   sodipodi:docname="cd-icon-location.svg"
   inkscape:version="0.92.2 (5c3e80d, 2017-08-06)"
   inkscape:export-filename="C:\Users\sinma\Google Drive\HUSTLE. ENERGY\Website-GIT\hustle-energy\img\widgets\gmap\cd-icon-location.png"
   inkscape:export-xdpi="96"
   inkscape:export-ydpi="96"><metadata
     id="metadata911"><rdf:RDF><cc:Work
         rdf:about=""><dc:format>image/svg+xml</dc:format><dc:type
           rdf:resource="http://purl.org/dc/dcmitype/StillImage" /></cc:Work></rdf:RDF></metadata><defs
     id="defs909" /><sodipodi:namedview
     pagecolor="#ffffff"
     bordercolor="#666666"
     borderopacity="1"
     objecttolerance="10"
     gridtolerance="10"
     guidetolerance="10"
     inkscape:pageopacity="0"
     inkscape:pageshadow="2"
     inkscape:window-width="1680"
     inkscape:window-height="987"
     id="namedview907"
     showgrid="false"
     inkscape:zoom="6.025139"
     inkscape:cx="24.180062"
     inkscape:cy="-6.6838046"
     inkscape:window-x="-8"
     inkscape:window-y="-8"
     inkscape:window-maximized="1"
     inkscape:current-layer="Layer_1" /><style
     type="text/css"
     id="style896">
	.st0{opacity:0.19;}
	.st1{fill:#13b1cd;}
	.st2{fill:#5bb8c9;}
	.st3{fill:#235c66;}
</style><ellipse
     class="st0"
     cx="23.5"
     cy="44.7"
     rx="10.4"
     ry="3.3"
     id="ellipse898" /><path
     class="st1"
     d="M23.5,0c-9.4,0-17,7.5-17,16.8s17,28,17,28s17-18.7,17-28S32.9,0,23.5,0z"
     id="path900"
     style="fill:#d30f11;fill-opacity:1" /><circle
     class="st2"
     cx="23.5"
     cy="15.5"
     r="4.2"
     id="circle902"
     style="fill:#b50f11;fill-opacity:1" /><path
     class="st3"
     d="M23.5,12.2c2.2,0,3.9,1.6,4.2,3.8c0-0.2,0.1-0.3,0.1-0.5c0-2.3-1.9-4.2-4.2-4.2s-4.2,1.9-4.2,4.2  c0,0.2,0,0.3,0.1,0.5C19.6,13.9,21.3,12.2,23.5,12.2z"
     id="path904"
     style="fill:#740f11;fill-opacity:1" /></svg>