<?xml version="1.0" encoding="UTF-8" standalone="no"?>
<!-- Created with Inkscape (http://www.inkscape.org/) -->

<svg
   xmlns:dc="http://purl.org/dc/elements/1.1/"
   xmlns:cc="http://creativecommons.org/ns#"
   xmlns:rdf="http://www.w3.org/1999/02/22-rdf-syntax-ns#"
   xmlns:svg="http://www.w3.org/2000/svg"
   xmlns="http://www.w3.org/2000/svg"
   xmlns:sodipodi="http://sodipodi.sourceforge.net/DTD/sodipodi-0.dtd"
   xmlns:inkscape="http://www.inkscape.org/namespaces/inkscape"
   width="181.50383mm"
   height="58.323421mm"
   viewBox="0 0 181.50383 58.323421"
   version="1.1"
   id="svg1147"
   inkscape:version="0.92.2 (5c3e80d, 2017-08-06)">
  <defs
     id="defs1141" />
  <sodipodi:namedview
     id="base"
     pagecolor="#ffffff"
     bordercolor="#666666"
     borderopacity="1.0"
     inkscape:pageopacity="0.0"
     inkscape:pageshadow="2"
     inkscape:zoom="0.35"
     inkscape:cx="764.42794"
     inkscape:cy="-15.496809"
     inkscape:document-units="mm"
     inkscape:current-layer="layer1"
     showgrid="false"
     fit-margin-top="0"
     fit-margin-left="0"
     fit-margin-right="0"
     fit-margin-bottom="0"
     inkscape:window-width="1920"
     inkscape:window-height="1017"
     inkscape:window-x="1672"
     inkscape:window-y="-8"
     inkscape:window-maximized="1" />
  <metadata
     id="metadata1144">
    <rdf:RDF>
      <cc:Work
         rdf:about="">
        <dc:format>image/svg+xml</dc:format>
        <dc:type
           rdf:resource="http://purl.org/dc/dcmitype/StillImage" />
        <dc:title></dc:title>
      </cc:Work>
    </rdf:RDF>
  </metadata>
  <g
     inkscape:label="Layer 1"
     inkscape:groupmode="layer"
     id="layer1"
     transform="translate(225.31144,-86.409715)">
    <path
       inkscape:connector-curvature="0"
       class="st0"
       d="m -191.63491,97.121162 v 4.5e-4 c 0.68318,0 1.23734,-0.55347 1.23813,-1.23675 0,-0.684321 -0.55485,-1.239051 -1.23916,-1.239051 -0.68428,0 -1.23901,0.55473 -1.23901,1.239051 0.004,0.68372 0.55654,1.23687 1.24004,1.23631 z"
       id="path840-7-1"
       style="fill:#da291c;stroke-width:0.11316426" />
    <path
       inkscape:connector-curvature="0"
       class="st0"
       d="m -204.48004,97.070922 c 0.65758,-0.0177 1.18674,-0.54625 1.20519,-1.20385 0.0191,-0.68407 -0.51988,-1.25408 -1.20384,-1.27321 -0.0226,-7.15e-4 -0.0452,-7.15e-4 -0.0678,-1.1e-4 -0.68408,0.0185 -1.22365,0.58788 -1.20531,1.271849 0.0184,0.684071 0.58777,1.223771 1.27184,1.205321 z"
       id="path842-2-5"
       style="fill:#da291c;stroke-width:0.11316426" />
    <path
       inkscape:connector-curvature="0"
       class="st0"
       d="m -212.73257,99.263592 h 0.57251 v 5.284648 c 0,1.0006 0.78356,1.79602 1.78776,1.79602 h 24.48818 c 1.00774,0 1.89517,-0.79531 1.89517,-1.79602 v -5.284648 h 0.46499 c 1.00771,0 1.89517,-0.79533 1.89517,-1.79603 v -1.80225 c 0,-1.007731 -0.88746,-1.833831 -1.89517,-1.833831 h -0.46499 v -5.24687 c 0,-1.00773 -0.88743,-1.83382 -1.89517,-1.83382 h -24.48818 c -1.0042,0 -1.78776,0.82598 -1.78776,1.83382 v 5.24687 h -0.57251 c -1.00421,0 -1.78775,0.825981 -1.78775,1.833831 v 1.80225 c 0,1.0007 0.78354,1.79603 1.78775,1.79603 z m 21.09663,-6.91662 c 1.95516,0 3.54014,1.584989 3.54014,3.54013 -0.004,1.95208 -1.58532,3.53344 -3.53741,3.53344 v -7.41e-4 c -1.9531,0.002 -3.53841,-1.57898 -3.54281,-3.53208 0,-1.95514 1.58497,-3.54012 3.54008,-3.54012 z m -12.97245,-0.0533 c 0.0648,-0.002 0.12947,-0.002 0.19409,1.2e-4 1.95435,0.0547 3.49439,1.68342 3.43962,3.63777 -0.0525,1.87898 -1.5645,3.38938 -3.44369,3.43976 -1.95447,0.0527 -3.58143,-1.48936 -3.63382,-3.44373 -0.0525,-1.95445 1.48935,-3.58141 3.4438,-3.63392 z"
       id="path844-9-2"
       style="fill:#da291c;stroke-width:0.11316426" />
    <path
       class="st0"
       d="m -172.00703,127.16642 v -16.88619 c -0.13793,-0.6501 -0.93337,-1.1721 -1.94109,-1.1721 l -48.19268,-0.003 c -1.00648,0 -1.78891,0.52571 -1.92696,1.17589 v 16.87788 c -0.82724,0.60844 -1.24368,1.39968 -1.24368,2.25916 0,1.06508 0.77416,2.0187 1.94698,2.65826 l 1.47147,-0.94525 c -0.24554,-0.12005 -0.46407,-0.2614 -0.64943,-0.42001 -1.11072,-0.95021 -0.81299,-2.29937 0.66506,-3.0135 1.47804,-0.71405 3.57678,-0.52264 4.6875,0.42754 1.1107,0.95022 0.81297,2.29947 -0.66508,3.01353 l 1.4751,0.94678 c 1.18357,-0.64029 1.93648,-1.60067 1.93648,-2.67041 0,-0.85876 -0.50744,-1.54683 -1.33932,-2.25616 v -10.86883 h 2.48634 v 24.42853 l -1.65672,0.58411 v 1.87604 h 16.29632 v -1.87602 l -1.65559,-0.58647 -0.004,-8.5467 h 4.69418 v 8.56951 l -1.79366,0.56367 v 1.87602 h 16.15587 v -1.87602 l -1.38212,-0.58645 v -24.33777 h 2.34827 v 10.78005 c -0.80482,0.70932 -1.34055,1.39965 -1.34055,2.25842 -0.003,1.03132 0.7082,2.00997 1.93647,2.67345 l 1.47509,-0.9475 c -0.2451,-0.11852 -0.46374,-0.25819 -0.64968,-0.41505 -1.12145,-0.94555 -0.83819,-2.29655 0.6326,-3.01743 1.47079,-0.72097 3.57225,-0.53896 4.69372,0.40667 1.12144,0.94556 0.83821,2.29654 -0.6326,3.01745 l 1.47974,0.94597 c 1.17296,-0.64028 1.93408,-1.59464 1.93408,-2.65898 0,-0.85957 -0.55381,-1.64703 -1.24299,-2.25464 z m -19.84504,-8.43734 -10.17797,7.87425 3.28662,-6.71066 h -5.25421 c -0.21796,0 -0.36066,-0.14667 -0.2656,-0.27267 l 4.21945,-5.58698 c 0.0495,-0.0654 0.15254,-0.10696 0.26559,-0.10696 h 1.87528 2.88548 0.93931 c 0.2252,0 0.36746,0.15564 0.25792,0.28207 l -3.40138,3.9273 c -0.10955,0.12652 0.0326,0.28214 0.2579,0.28214 h 4.88528 c 0.25033,7e-5 0.38701,0.18798 0.22633,0.31151 z"
       id="path846-4-0"
       inkscape:connector-curvature="0"
       style="fill:#da291c;stroke-width:0.09073484"
       sodipodi:nodetypes="ccccccsccccsccscccccccccccccccccccccccccccccccccsccsccsccscc" />
    <text
       xml:space="preserve"
       style="font-style:normal;font-weight:normal;font-size:41.3053627px;line-height:1.25;font-family:sans-serif;letter-spacing:0px;word-spacing:0px;fill:#b4b4b3;fill-opacity:1;stroke:none;stroke-width:1.03263426"
       x="-168.34758"
       y="144.30287"
       id="text4889-0-5-86-0"
       inkscape:export-filename="C:\Users\sinma\Google Drive\HUSTLE. ENERGY\Website-GIT\hustle-energy\img\hustle-logo.png"
       inkscape:export-xdpi="96"
       inkscape:export-ydpi="96"><tspan
         sodipodi:role="line"
         id="tspan4887-4-7-1-9"
         x="-168.34758"
         y="144.30287"
         style="font-style:normal;font-variant:normal;font-weight:600;font-stretch:normal;font-size:43.02642059px;font-family:Calibre;-inkscape-font-specification:'Calibre Semi-Bold';letter-spacing:-4.30264187px;fill:#b4b4b3;fill-opacity:1;stroke-width:1.03263426">ENERGY</tspan></text>
    <text
       xml:space="preserve"
       style="font-style:normal;font-weight:normal;font-size:41.3053627px;line-height:1.25;font-family:sans-serif;letter-spacing:0px;word-spacing:0px;fill:#da291c;fill-opacity:1;stroke:none;stroke-width:1.03263426"
       x="-167.05679"
       y="113.2582"
       id="text4889-0-5-86-0-7"
       inkscape:export-filename="C:\Users\sinma\Google Drive\HUSTLE. ENERGY\Website-GIT\hustle-energy\img\hustle-logo.png"
       inkscape:export-xdpi="96"
       inkscape:export-ydpi="96"><tspan
         sodipodi:role="line"
         id="tspan4887-4-7-1-9-8"
         x="-167.05679"
         y="113.2582"
         style="font-style:normal;font-variant:normal;font-weight:600;font-stretch:normal;font-size:43.02642059px;font-family:Calibre;-inkscape-font-specification:'Calibre Semi-Bold';letter-spacing:-3.10446644px;fill:#da291c;fill-opacity:1;stroke-width:1.03263426">CO.</tspan></text>
  </g>
</svg>
