<?xml version="1.0" encoding="UTF-8"?>
<!-- Created with Inkscape (http://www.inkscape.org/) -->
<svg width="54.899mm" height="56.791mm" version="1.1" viewBox="0 0 54.899 56.791" xmlns="http://www.w3.org/2000/svg" xmlns:cc="http://creativecommons.org/ns#" xmlns:dc="http://purl.org/dc/elements/1.1/" xmlns:rdf="http://www.w3.org/1999/02/22-rdf-syntax-ns#">
 <metadata>
  <rdf:RDF>
   <cc:Work rdf:about="">
    <dc:format>image/svg+xml</dc:format>
    <dc:type rdf:resource="http://purl.org/dc/dcmitype/StillImage"/>
    <dc:title/>
   </cc:Work>
  </rdf:RDF>
 </metadata>
 <g transform="translate(84.902 -150.68)" fill="#da291c">
  <g stroke-width=".11389">
   <path class="st0" d="m-51.008 161.11v4.8e-4c0.68759 0 1.2453-0.55705 1.2461-1.2448 0-0.68872-0.55843-1.247-1.2472-1.247-0.6887 0-1.247 0.55831-1.247 1.247 4e-3 0.68815 0.56014 1.2449 1.248 1.2443z"/>
   <path class="st0" d="m-63.936 161.06c0.66183-0.0178 1.1944-0.54977 1.213-1.2116 0.0193-0.68849-0.52323-1.2622-1.2116-1.2814-0.0227-7.1e-4 -0.0455-7.1e-4 -0.0683-1.1e-4 -0.68849 0.0186-1.2315 0.59168-1.2131 1.2801 0.0185 0.68849 0.59157 1.2316 1.2801 1.2131z"/>
   <path class="st0" d="m-72.242 163.27h0.5762v5.3188c0 1.0071 0.78862 1.8076 1.7993 1.8076h24.646c1.0143 0 1.9074-0.80045 1.9074-1.8076v-5.3188h0.46799c1.0142 0 1.9074-0.80045 1.9074-1.8076v-1.8139c0-1.0142-0.89318-1.8457-1.9074-1.8457h-0.46799v-5.2807c0-1.0142-0.89315-1.8457-1.9074-1.8457h-24.646c-1.0107 0-1.7993 0.83131-1.7993 1.8457v5.2807h-0.5762c-1.0107 0-1.7993 0.83132-1.7993 1.8457v1.8139c0 1.0072 0.7886 1.8076 1.7993 1.8076zm21.233-6.9612c1.9678 0 3.563 1.5952 3.563 3.563-4e-3 1.9647-1.5955 3.5562-3.5602 3.5562v-1e-3c-1.9657 1e-3 -3.5613-1.5892-3.5657-3.5549 0-1.9678 1.5952-3.563 3.5629-3.563zm-13.056-0.0538c0.0652-2e-3 0.1303-2e-3 0.19534 1.2e-4 1.967 0.0551 3.5169 1.6943 3.4618 3.6612-0.0528 1.8911-1.5746 3.4112-3.4659 3.4619-1.9671 0.053-3.6045-1.499-3.6573-3.4659-0.0528-1.9671 1.499-3.6045 3.466-3.6574z"/>
  </g>
  <path class="st0" d="m-31.253 191.35v-16.995c-0.13882-0.6543-0.93939-1.1797-1.9536-1.1797l-48.504-4e-3c-1.013 0-1.8004 0.52909-1.9394 1.1835v16.987c-0.83257 0.61235-1.2517 1.4087-1.2517 2.2737 0 1.0719 0.77916 2.0317 1.9596 2.6754l1.481-0.95134c-0.24713-0.12081-0.46706-0.26309-0.65363-0.42271-1.1179-0.95634-0.81822-2.3142 0.66936-3.0329 1.4876-0.71867 3.5999-0.52603 4.7177 0.43031 1.1179 0.95635 0.81822 2.3143-0.66937 3.033l1.4846 0.95289c1.1912-0.64441 1.949-1.611 1.949-2.6876 0-0.8643-0.51071-1.5568-1.348-2.2707v-10.939h2.5024v24.586l-1.6674 0.58788v1.8882h16.401v-1.8881l-1.6663-0.59023-4e-3 -8.6019h4.7245v8.6248l-1.8052 0.56731v1.8881h16.26v-1.8881l-1.391-0.59023v-24.494h2.3634v10.85c-0.81001 0.71388-1.3492 1.4087-1.3492 2.273-3e-3 1.038 0.71276 2.0229 1.949 2.6907l1.4846-0.95362c-0.24669-0.11929-0.46673-0.25985-0.65387-0.41774-1.1287-0.95164-0.8436-2.3114 0.63668-3.0369 1.4803-0.72562 3.5953-0.54242 4.724 0.40931 1.1287 0.95165 0.84362 2.3114-0.63667 3.0369l1.4893 0.95208c1.1805-0.64441 1.9466-1.6049 1.9466-2.6761 0-0.86511-0.55739-1.6576-1.251-2.2692zm-19.973-8.4918-10.244 7.9251 3.3078-6.754h-5.2881c-0.21937 0-0.36299-0.1476-0.26732-0.27442l4.2467-5.623c0.0498-0.0658 0.15352-0.10764 0.2673-0.10764h5.7369c0.22665 0 0.36983 0.15662 0.25958 0.28388l-3.4233 3.9527c-0.11024 0.12733 0.0328 0.28396 0.25956 0.28396h4.9168c0.25194 6e-5 0.38952 0.18919 0.22779 0.31351z" stroke-width=".09132"/>
 </g>
</svg>
