<?xml version="1.0" encoding="UTF-8"?>
<!-- Created with Inkscape (http://www.inkscape.org/) -->
<svg width="180.56mm" height="62.47mm" version="1.1" viewBox="0 0 180.56 62.47" xmlns="http://www.w3.org/2000/svg" xmlns:cc="http://creativecommons.org/ns#" xmlns:dc="http://purl.org/dc/elements/1.1/" xmlns:rdf="http://www.w3.org/1999/02/22-rdf-syntax-ns#">
 <metadata>
  <rdf:RDF>
   <cc:Work rdf:about="">
    <dc:format>image/svg+xml</dc:format>
    <dc:type rdf:resource="http://purl.org/dc/dcmitype/StillImage"/>
    <dc:title/>
   </cc:Work>
  </rdf:RDF>
 </metadata>
 <g transform="translate(105.4 -48.051)">
  <g fill="#da291c" stroke-width=".88682" aria-label="hustle.">
   <path d="m-39.836 83.899h6.5617v-14.975c0.52917-2.0638 2.2754-3.2808 4.2862-3.2808 2.5929 0 3.8629 1.6933 3.8629 4.1804v14.076h6.5617v-15.452c0-5.2388-3.0162-8.7312-8.3608-8.7312-2.7517 0-5.08 1.2171-6.35 2.6988v-12.912h-6.5617z"/>
   <path d="m3.9189 60.245h-6.6146v15.028c-0.47625 2.0638-2.2225 3.2808-4.2333 3.2808-2.5929 0-3.81-1.6933-3.81-4.1804v-14.129h-6.5617v15.452c0 5.2388 3.0162 8.7312 8.3079 8.7312 2.7517 0 5.0271-1.2171 6.35-2.6988v2.1696h6.5617z"/>
   <path d="m4.1256 76.861c0.68792 4.8154 4.7625 7.5671 10.53 7.5671 5.5033 0 9.6838-2.8575 9.6838-7.6729 0-3.5983-2.1696-5.8738-6.2971-6.8792l-4.8683-1.1112c-1.4817-0.37042-2.1167-0.89958-2.1167-1.8521 0-1.4817 1.5346-2.2225 3.1221-2.2225 2.1696 0 3.2808 1.0054 3.7042 2.3283h6.2442c-0.79375-4.445-4.0746-7.3025-10.054-7.3025-5.2917 0-9.4192 3.0692-9.4192 7.6729 0 3.9688 2.54 5.8208 6.1383 6.6675l4.7625 1.0583c1.6404 0.42333 2.3812 0.9525 2.3812 2.0108 0 1.5346-1.3229 2.3283-3.3338 2.3283-1.9579 0-3.4396-0.89958-3.9688-2.5929z"/>
   <path d="m26.271 76.755c0 5.2388 3.0162 7.62 7.8317 7.62 1.7462 0 3.3338-0.26458 4.2333-0.74083v-5.8208c-0.74083 0.47625-1.8521 0.79375-2.8575 0.79375-1.6933 0-2.6988-0.84667-2.6988-2.6988v-10.372h5.1858v-5.2917h-5.1858v-6.4029h-6.5088v6.4029h-3.5983v5.2917h3.5983z"/>
   <path d="m45.729 49.503h-6.5617v34.396h6.5617z"/>
   <path d="m61.891 76.173c-0.52917 2.0108-2.1696 2.9633-4.3921 2.9633-2.9104 0-4.9212-2.1167-5.1329-5.6621h15.769v-2.0108c0-6.9321-3.81-11.748-10.742-11.748-6.6146 0-11.377 5.2388-11.377 12.382 0 7.3025 4.6038 12.33 11.483 12.33 5.9267 0 9.6308-3.2279 10.478-8.255zm-4.445-11.113c2.6988 0 4.1804 1.9579 4.2333 4.445h-9.1546c0.58208-2.9104 2.3812-4.445 4.9212-4.445z"/>
   <path d="m66.905 80.036c0 2.3812 1.7992 4.2333 4.1275 4.2333s4.1275-1.8521 4.1275-4.2333-1.7992-4.1804-4.1275-4.1804-4.1275 1.7992-4.1275 4.1804z"/>
  </g>
  <g fill="#b4b4b3" stroke-width=".635" aria-label="energy">
   <path d="m16.029 101.3c-0.3048 1.27-1.3462 1.9812-2.7432 1.9812-1.905 0-3.2512-1.4732-3.2766-3.8862h7.9756v-0.6858c0-3.2766-1.651-5.5372-4.7498-5.5372-3.0734 0-5.1308 2.5146-5.1308 5.8928 0 3.4798 2.1082 5.842 5.1816 5.842 2.54 0 4.1402-1.4732 4.5466-3.6068zm-2.7686-6.5024c1.8796 0 2.7686 1.4732 2.794 3.1496h-5.9944c0.2794-1.9812 1.4986-3.1496 3.2004-3.1496z"/>
   <path d="m20.525 104.68h1.905v-7.6454c0.4064-1.2192 1.5494-2.1082 2.8702-2.1082 1.7018 0 2.4892 1.0922 2.4892 2.667v7.0866h1.9304v-7.3914c0-2.4638-1.397-4.1148-3.9624-4.1148-1.4478 0-2.667 0.762-3.3274 1.651v-1.4224h-1.905z"/>
   <path d="m40.04 101.3c-0.3048 1.27-1.3462 1.9812-2.7432 1.9812-1.905 0-3.2512-1.4732-3.2766-3.8862h7.9756v-0.6858c0-3.2766-1.651-5.5372-4.7498-5.5372-3.0734 0-5.1308 2.5146-5.1308 5.8928 0 3.4798 2.1082 5.842 5.1816 5.842 2.54 0 4.1402-1.4732 4.5466-3.6068zm-2.7686-6.5024c1.8796 0 2.7686 1.4732 2.794 3.1496h-5.9944c0.2794-1.9812 1.4986-3.1496 3.2004-3.1496z"/>
   <path d="m50.328 93.348c-0.2032-0.1016-0.6096-0.1778-1.0922-0.1778-1.2446 0-2.3114 0.7366-2.794 1.7018v-1.4732h-1.905v11.278h1.905v-7.5692c0.381-1.3208 1.4224-2.1082 2.6162-2.1082 0.4826 0 0.9652 0.1016 1.27 0.3048z"/>
   <path d="m59.816 103.91c0 2.4384-1.0668 3.7084-3.0988 3.7084-1.5494 0-2.6162-0.6858-2.9464-2.1082h-1.8796c0.3556 2.3114 2.0828 3.7338 4.826 3.7338 2.8956 0 5.0292-1.7526 5.0292-5.461v-10.389h-1.9304v1.27c-0.5588-0.7874-1.7526-1.4986-3.1496-1.4986-3.302 0-5.0546 2.7178-5.0546 5.715 0 2.9718 1.7526 5.715 5.0546 5.715 1.397 0 2.5908-0.7366 3.1496-1.524zm0-2.794c-0.5842 1.0668-1.651 1.7526-2.8702 1.7526-2.1336 0-3.3782-1.6764-3.3782-3.9878 0-2.3368 1.2446-4.0132 3.3782-4.0132 1.2192 0 2.286 0.6858 2.8702 1.7526z"/>
   <path d="m68.501 108.99 6.0706-15.596h-1.9812l-3.2766 8.89-3.3274-8.89h-2.0574l4.3942 11.354-1.7018 4.2418z"/>
  </g>
  <g fill="#da291c">
   <g stroke-width=".12528">
    <path class="st0" d="m-68.115 59.532v5.29e-4c0.75635 0 1.3699-0.61276 1.3707-1.3692 0-0.75759-0.61427-1.3717-1.3719-1.3717-0.75757 0-1.3717 0.61414-1.3717 1.3717 4e-3 0.75696 0.61615 1.3694 1.3728 1.3687z"/>
    <path class="st0" d="m-82.335 59.476c0.72801-0.01955 1.3138-0.60475 1.3343-1.3328 0.02123-0.75734-0.57555-1.3884-1.3328-1.4096-0.02497-7.93e-4 -0.05005-7.93e-4 -0.07513-1.27e-4 -0.75734 0.02044-1.3547 0.65085-1.3344 1.4081 0.02035 0.75734 0.65073 1.3548 1.4081 1.3344z"/>
    <path class="st0" d="m-91.472 61.903h0.63382v5.8506c0 1.1078 0.86748 1.9884 1.9792 1.9884h27.111c1.1157 0 2.0981-0.8805 2.0981-1.9884v-5.8506h0.51479c1.1156 0 2.0981-0.8805 2.0981-1.9884v-1.9953c0-1.1157-0.9825-2.0302-2.0981-2.0302h-0.51479v-5.8088c0-1.1157-0.98247-2.0302-2.0981-2.0302h-27.111c-1.1117 0-1.9792 0.91445-1.9792 2.0302v5.8088h-0.63382c-1.1118 0-1.9792 0.91445-1.9792 2.0302v1.9953c0 1.1079 0.86746 1.9884 1.9792 1.9884zm23.356-7.6574c2.1646 0 3.9193 1.7547 3.9193 3.9193-4e-3 2.1611-1.7551 3.9119-3.9163 3.9119v-0.0015c-2.1623 0.0016-3.9174-1.7481-3.9222-3.9104 0-2.1645 1.7547-3.9193 3.9192-3.9193zm-14.362-0.05914c0.07172-0.0019 0.14333-0.0019 0.21487 1.29e-4 2.1637 0.06063 3.8686 1.8637 3.808 4.0274-0.05808 2.0802-1.732 3.7524-3.8125 3.8081-2.1638 0.05826-3.965-1.6489-4.023-3.8125-0.05808-2.1638 1.6489-3.965 3.8126-4.0231z"/>
   </g>
   <path class="st0" d="m-46.385 92.795v-18.695c-0.1527-0.71973-1.0333-1.2976-2.149-1.2976l-53.354-0.0042c-1.1143 0-1.9805 0.582-2.1333 1.3018v18.685c-0.91583 0.67358-1.3769 1.5496-1.3769 2.5011 0 1.1791 0.85708 2.2349 2.1555 2.943l1.629-1.0465c-0.27184-0.13291-0.51376-0.2894-0.71899-0.46499-1.2297-1.052-0.90004-2.5456 0.73629-3.3362 1.6363-0.79053 3.9598-0.57862 5.1895 0.47335 1.2297 1.052 0.90004 2.5457-0.73631 3.3363l1.6331 1.0482c1.3103-0.70886 2.1439-1.7721 2.1439-2.9564 0-0.95073-0.56178-1.7125-1.4827-2.4978v-12.033h2.7526v27.045l-1.8342 0.64668v2.077h18.042v-2.0769l-1.8329-0.64926-0.0044-9.462h5.1969v9.4873l-1.9857 0.62403v2.0769h17.886v-2.0769l-1.5301-0.64925v-26.944h2.5998v11.935c-0.89101 0.78528-1.4841 1.5496-1.4841 2.5003-3e-3 1.1418 0.78404 2.2252 2.1439 2.9598l1.6331-1.049c-0.27136-0.13121-0.51341-0.28585-0.71926-0.45951-1.2416-1.0468-0.92796-2.5425 0.70035-3.3406 1.6283-0.79818 3.9548-0.59666 5.1964 0.45023 1.2415 1.0468 0.92798 2.5425-0.70034 3.3406l1.6382 1.0473c1.2986-0.70885 2.1412-1.7654 2.1412-2.9437 0-0.95162-0.61313-1.8234-1.3761-2.4961zm-21.97-9.341-11.268 8.7176 3.6386-7.4293h-5.8169c-0.24131 0-0.39929-0.16237-0.29405-0.30187l4.6713-6.1853c0.05478-0.07241 0.16887-0.1184 0.29403-0.1184h6.3105c0.24931 0 0.4068 0.17228 0.28553 0.31226l-3.7657 4.3479c-0.12127 0.14006 0.03608 0.31234 0.28552 0.31234h5.4085c0.27714 8e-5 0.42847 0.20812 0.25057 0.34488z" stroke-width=".10045"/>
  </g>
 </g>
</svg>
