<?xml version="1.0" encoding="UTF-8"?>
<!-- Created with Inkscape (http://www.inkscape.org/) -->
<svg width="232.55mm" height="62.471mm" version="1.1" viewBox="0 0 232.55 62.471" xmlns="http://www.w3.org/2000/svg" xmlns:cc="http://creativecommons.org/ns#" xmlns:dc="http://purl.org/dc/elements/1.1/" xmlns:rdf="http://www.w3.org/1999/02/22-rdf-syntax-ns#">
 <metadata>
  <rdf:RDF>
   <cc:Work rdf:about="">
    <dc:format>image/svg+xml</dc:format>
    <dc:type rdf:resource="http://purl.org/dc/dcmitype/StillImage"/>
    <dc:title/>
   </cc:Work>
  </rdf:RDF>
 </metadata>
 <g transform="translate(103.43 36.616)" fill="#da291c">
  <g stroke-width="1.2726" aria-label="hustle.">
   <path d="m-35.886 19.298h9.4158v-21.489c0.75934-2.9614 3.2651-4.7079 6.1506-4.7079 3.7207 0 5.5431 2.4299 5.5431 5.9987v20.198h9.4158v-22.173c0-7.5174-4.3282-12.529-11.997-12.529-3.9485 0-7.2896 1.7465-9.112 3.8726v-18.528h-9.4158z"/>
   <path d="m26.9-14.644h-9.4917v21.565c-0.6834 2.9614-3.1892 4.7079-6.0747 4.7079-3.7207 0-5.4672-2.4299-5.4672-5.9987v-20.274h-9.4158v22.173c0 7.5174 4.3282 12.529 11.922 12.529 3.9485 0 7.2137-1.7465 9.112-3.8726v3.1133h9.4158z"/>
   <path d="m27.197 9.1987c0.98714 6.91 6.834 10.858 15.111 10.858 7.8971 0 13.896-4.1004 13.896-11.01 0-5.1635-3.1133-8.4286-9.0361-9.8714l-6.9859-1.5946c-2.1261-0.53153-3.0373-1.2909-3.0373-2.6577 0-2.1261 2.2021-3.1892 4.4801-3.1892 3.1133 0 4.7079 1.4427 5.3153 3.3411h8.9602c-1.139-6.3784-5.8469-10.479-14.427-10.479-7.5934 0-13.516 4.4041-13.516 11.01 0 5.695 3.6448 8.3527 8.8083 9.5676l6.834 1.5187c2.3539 0.60747 3.417 1.3668 3.417 2.8855 0 2.2021-1.8983 3.3411-4.7838 3.3411-2.8095 0-4.9357-1.2909-5.695-3.7207z"/>
   <path d="m58.975 9.0468c0 7.5174 4.3282 10.934 11.238 10.934 2.5058 0 4.7838-0.37967 6.0747-1.0631v-8.3527c-1.0631 0.6834-2.6577 1.139-4.1004 1.139-2.4299 0-3.8726-1.2149-3.8726-3.8726v-14.883h7.4415v-7.5934h-7.4415v-9.188h-9.3398v9.188h-5.1635v7.5934h5.1635z"/>
   <path d="m86.896-30.059h-9.4158v49.357h9.4158z"/>
   <path d="m110.09 8.2115c-0.75933 2.8855-3.1133 4.2523-6.3025 4.2523-4.1763 0-7.0618-3.0373-7.3656-8.1249h22.628v-2.8855c0-9.9473-5.4672-16.857-15.415-16.857-9.4917 0-16.326 7.5174-16.326 17.768 0 10.479 6.6062 17.693 16.478 17.693 8.5046 0 13.82-4.6319 15.035-11.846zm-6.3784-15.946c3.8726 0 5.9988 2.8095 6.0747 6.3784h-13.137c0.83527-4.1763 3.417-6.3784 7.0618-6.3784z"/>
   <path d="m117.28 13.755c0 3.417 2.5817 6.0747 5.9228 6.0747 3.3411 0 5.9228-2.6577 5.9228-6.0747s-2.5817-5.9987-5.9228-5.9987c-3.3411 0-5.9228 2.5817-5.9228 5.9987z"/>
  </g>
  <g stroke-width=".12528">
   <path class="st0" d="m-66.143-25.135v5.29e-4c0.75635 0 1.3699-0.61276 1.3707-1.3692 0-0.7576-0.61427-1.3717-1.3719-1.3717-0.75757 0-1.3717 0.61414-1.3717 1.3717 4e-3 0.75696 0.61615 1.3694 1.3728 1.3687z"/>
   <path class="st0" d="m-80.364-25.191c0.72801-0.0196 1.3138-0.60475 1.3343-1.3328 0.0212-0.75734-0.57556-1.3884-1.3328-1.4096-0.025-7.94e-4 -0.05-7.94e-4 -0.0751-1.3e-4 -0.75734 0.0204-1.3547 0.65085-1.3344 1.4081 0.0204 0.75734 0.65072 1.3548 1.4081 1.3344z"/>
   <path class="st0" d="m-89.5-22.763h0.63382v5.8506c0 1.1078 0.86748 1.9884 1.9792 1.9884h27.111c1.1157 0 2.0981-0.88049 2.0981-1.9884v-5.8506h0.51479c1.1156 0 2.0981-0.8805 2.0981-1.9884v-1.9953c0-1.1157-0.9825-2.0302-2.0981-2.0302h-0.51479v-5.8088c0-1.1156-0.98247-2.0302-2.0981-2.0302h-27.111c-1.1118 0-1.9792 0.91445-1.9792 2.0302v5.8088h-0.63382c-1.1118 0-1.9792 0.91445-1.9792 2.0302v1.9953c0 1.1079 0.86746 1.9884 1.9792 1.9884zm23.356-7.6574c2.1646 0 3.9193 1.7547 3.9193 3.9193-4e-3 2.1612-1.7551 3.9119-3.9163 3.9119v-1e-3c-2.1623 2e-3 -3.9174-1.7481-3.9222-3.9104 0-2.1645 1.7547-3.9193 3.9192-3.9193zm-14.362-0.0591c0.0717-2e-3 0.14333-2e-3 0.21488 1.3e-4 2.1636 0.0606 3.8686 1.8637 3.808 4.0274-0.0581 2.0802-1.732 3.7524-3.8125 3.8081-2.1638 0.0583-3.965-1.6489-4.023-3.8125-0.0581-2.1638 1.6489-3.965 3.8126-4.0231z"/>
  </g>
  <path class="st0" d="m-44.413 8.1278v-18.695c-0.1527-0.71972-1.0333-1.2976-2.149-1.2976l-53.354-4e-3c-1.1143 0-1.9805 0.582-2.1333 1.3018v18.685c-0.91583 0.67358-1.3769 1.5496-1.3769 2.5011 0 1.1791 0.85707 2.2349 2.1555 2.943l1.6291-1.0465c-0.27184-0.13291-0.51377-0.2894-0.71899-0.46499-1.2297-1.052-0.90005-2.5456 0.73629-3.3362 1.6363-0.79053 3.9598-0.57862 5.1895 0.47335 1.2296 1.052 0.90004 2.5457-0.73631 3.3363l1.6331 1.0482c1.3103-0.70886 2.1439-1.7721 2.1439-2.9564 0-0.95073-0.56178-1.7125-1.4828-2.4978v-12.033h2.7526v27.045l-1.8342 0.64667v2.077h18.042v-2.0769l-1.8329-0.64926-4e-3 -9.462h5.1969v9.4873l-1.9858 0.62404v2.0769h17.886v-2.0769l-1.5301-0.64925v-26.944h2.5998v11.935c-0.89102 0.78528-1.4841 1.5496-1.4841 2.5003-3e-3 1.1418 0.78404 2.2252 2.1439 2.9598l1.6331-1.049c-0.27136-0.13121-0.51341-0.28585-0.71926-0.45951-1.2416-1.0468-0.92796-2.5425 0.70035-3.3406 1.6283-0.79818 3.9548-0.59666 5.1964 0.45023 1.2416 1.0468 0.92798 2.5425-0.70034 3.3406l1.6382 1.0473c1.2986-0.70885 2.1412-1.7654 2.1412-2.9437 0-0.95162-0.61313-1.8234-1.3761-2.4961zm-21.97-9.341-11.268 8.7176 3.6386-7.4293h-5.8169c-0.2413 0-0.39929-0.16237-0.29405-0.30187l4.6714-6.1853c0.0548-0.0724 0.16887-0.1184 0.29403-0.1184h6.3105c0.24932 0 0.40681 0.17229 0.28554 0.31227l-3.7657 4.3479c-0.12128 0.14006 0.0361 0.31234 0.28552 0.31234h5.4085c0.27714 8e-5 0.42846 0.20812 0.25057 0.34488z" stroke-width=".10045"/>
 </g>
</svg>
