<?xml version="1.0" encoding="UTF-8" standalone="no"?>
<!-- www.vectorico.com  -->

<svg
   xmlns:dc="http://purl.org/dc/elements/1.1/"
   xmlns:cc="http://creativecommons.org/ns#"
   xmlns:rdf="http://www.w3.org/1999/02/22-rdf-syntax-ns#"
   xmlns:svg="http://www.w3.org/2000/svg"
   xmlns="http://www.w3.org/2000/svg"
   xmlns:sodipodi="http://sodipodi.sourceforge.net/DTD/sodipodi-0.dtd"
   xmlns:inkscape="http://www.inkscape.org/namespaces/inkscape"
   version="1.1"
   id="in"
   x="0px"
   y="0px"
   viewBox="0 0 300 300"
   xml:space="preserve"
   sodipodi:docname="LinkedIn-Icon-Square.svg"
   inkscape:version="0.92.2 (5c3e80d, 2017-08-06)"
   width="300"
   height="300"><metadata
     id="metadata1464"><rdf:RDF><cc:Work
         rdf:about=""><dc:format>image/svg+xml</dc:format><dc:type
           rdf:resource="http://purl.org/dc/dcmitype/StillImage" /><dc:title /></cc:Work></rdf:RDF></metadata><defs
     id="defs1462" /><sodipodi:namedview
     pagecolor="#ffffff"
     bordercolor="#666666"
     borderopacity="1"
     objecttolerance="10"
     gridtolerance="10"
     guidetolerance="10"
     inkscape:pageopacity="0"
     inkscape:pageshadow="2"
     inkscape:window-width="1920"
     inkscape:window-height="1017"
     id="namedview1460"
     showgrid="false"
     inkscape:zoom="1.1229524"
     inkscape:cx="-64.26981"
     inkscape:cy="68.439643"
     inkscape:window-x="-8"
     inkscape:window-y="-8"
     inkscape:window-maximized="1"
     inkscape:current-layer="in"
     fit-margin-top="0"
     fit-margin-left="0"
     fit-margin-right="0"
     fit-margin-bottom="0" /><style
     type="text/css"
     id="style1451">
	.st0{fill:#007BB5;}
	.st1{fill:#FFFFFF;}
</style><g
     id="g4448"
     transform="scale(4.6875)"><rect
       style="fill:#cc0033;fill-opacity:1"
       id="rect1453"
       height="64"
       width="64"
       class="st0"
       x="0"
       y="0" /><path
       id="path1455"
       d="M 7.5,23.3 H 17.8 V 56.6 H 7.5 Z M 12.7,6.7 c 3.3,0 6,2.7 6,6.1 0,3.3 -2.7,6.1 -6,6.1 -3.3,0 -6,-2.7 -6,-6.1 0,-3.4 2.7,-6.1 6,-6.1"
       class="st1"
       inkscape:connector-curvature="0"
       style="fill:#ffffff" /><path
       id="path1457"
       d="m 24.4,23.3 h 10 v 4.5 h 0.1 c 1.4,-2.7 4.8,-5.4 9.8,-5.4 10.5,0 12.4,6.9 12.4,15.9 V 56.6 H 46.4 V 40.4 c 0,-3.8 -0.1,-8.9 -5.3,-8.9 -5.3,0 -6.2,4.2 -6.2,8.6 V 56.7 H 24.5 V 23.3 Z"
       class="st1"
       inkscape:connector-curvature="0"
       style="fill:#ffffff" /></g></svg>