<?xml version="1.0" encoding="UTF-8" standalone="no"?>
<svg
   xmlns:dc="http://purl.org/dc/elements/1.1/"
   xmlns:cc="http://creativecommons.org/ns#"
   xmlns:rdf="http://www.w3.org/1999/02/22-rdf-syntax-ns#"
   xmlns:svg="http://www.w3.org/2000/svg"
   xmlns="http://www.w3.org/2000/svg"
   xmlns:sodipodi="http://sodipodi.sourceforge.net/DTD/sodipodi-0.dtd"
   xmlns:inkscape="http://www.inkscape.org/namespaces/inkscape"
   viewBox="0 0 400 400"
   version="1.1"
   id="svg5057"
   sodipodi:docname="Twitter_Logo_WhiteOnBlue.svg"
   width="400"
   height="400"
   inkscape:version="0.92.2 (5c3e80d, 2017-08-06)">
  <metadata
     id="metadata5061">
    <rdf:RDF>
      <cc:Work
         rdf:about="">
        <dc:format>image/svg+xml</dc:format>
        <dc:type
           rdf:resource="http://purl.org/dc/dcmitype/StillImage" />
        <dc:title>Twitter_Logo_White-on-Blue</dc:title>
      </cc:Work>
    </rdf:RDF>
  </metadata>
  <sodipodi:namedview
     pagecolor="#ffffff"
     bordercolor="#666666"
     borderopacity="1"
     objecttolerance="10"
     gridtolerance="10"
     guidetolerance="10"
     inkscape:pageopacity="0"
     inkscape:pageshadow="2"
     inkscape:window-width="1920"
     inkscape:window-height="1017"
     id="namedview5059"
     showgrid="false"
     fit-margin-top="0"
     fit-margin-left="0"
     fit-margin-right="0"
     fit-margin-bottom="0"
     inkscape:zoom="1.437379"
     inkscape:cx="46.083773"
     inkscape:cy="255.51885"
     inkscape:window-x="-8"
     inkscape:window-y="-8"
     inkscape:window-maximized="1"
     inkscape:current-layer="svg5057" />
  <defs
     id="defs5045">
    <style
       id="style5043">.cls-1{fill:#1da1f2;}.cls-2{fill:#fff;}.cls-3{fill:none;}</style>
  </defs>
  <title
     id="title5047">Twitter_Logo_White-on-Blue</title>
  <g
     id="Dark_Blue"
     data-name="Dark Blue"
     style="opacity:1;fill:#cc0033;fill-opacity:1">
    <rect
       class="cls-1"
       width="400"
       height="400"
       id="rect5049"
       style="fill:#cc0033;fill-opacity:1"
       x="0"
       y="0" />
  </g>
  <g
     id="Logo_FIXED"
     data-name="Logo — FIXED">
    <path
       class="cls-2"
       d="m 153.62,301.59 c 94.34,0 145.94,-78.16 145.94,-145.94 0,-2.22 0,-4.43 -0.15,-6.63 A 104.36,104.36 0 0 0 325,122.47 102.38,102.38 0 0 1 295.54,130.54 51.47,51.47 0 0 0 318.09,102.17 102.79,102.79 0 0 1 285.52,114.62 51.34,51.34 0 0 0 198.11,161.4 145.62,145.62 0 0 1 92.4,107.81 51.33,51.33 0 0 0 108.28,176.28 50.91,50.91 0 0 1 85,169.86 c 0,0.21 0,0.43 0,0.65 a 51.31,51.31 0 0 0 41.15,50.28 51.21,51.21 0 0 1 -23.16,0.88 51.35,51.35 0 0 0 47.92,35.62 102.92,102.92 0 0 1 -63.7,22 104.41,104.41 0 0 1 -12.21,-0.74 145.21,145.21 0 0 0 78.62,23"
       id="path5052"
       inkscape:connector-curvature="0"
       style="fill:#ffffff" />
    <rect
       class="cls-3"
       width="400"
       height="400"
       id="rect5054"
       x="0"
       y="0"
       style="fill:none" />
  </g>
</svg>
